<svg xmlns="http://www.w3.org/2000/svg" enable-background="new 0 0 24 24" viewBox="0 0 24 24" id="slack">
  <path d="M8.975 23.999c-1.607 0-2.916-1.308-2.916-2.916v-6.043c0-1.608 1.309-2.916 2.916-2.916s2.915 1.308 2.915 2.916v6.043c0 1.608-1.308 2.916-2.915 2.916zm0-10.875c-1.057 0-1.916.859-1.916 1.916v6.043c0 1.057.859 1.916 1.916 1.916 1.056 0 1.915-.859 1.915-1.916v-6.043c0-1.057-.86-1.916-1.915-1.916zM2.936 17.958c-1.608 0-2.917-1.309-2.917-2.918s1.309-2.918 2.917-2.918h2.418c.276 0 .5.224.5.5v2.418c0 1.609-1.309 2.918-2.918 2.918zm.002-4.836c-1.059 0-1.919.86-1.919 1.918s.86 1.918 1.917 1.918c1.058 0 1.918-.86 1.918-1.918v-1.918zM11.39 5.835h-2.415c-1.609 0-2.918-1.309-2.918-2.918s1.309-2.918 2.918-2.918h.002c1.606 0 2.913 1.307 2.913 2.913v2.423c0 .276-.224.5-.5.5zm-2.413-4.836c-1.059 0-1.92.86-1.92 1.918s.86 1.918 1.918 1.918h1.915v-1.918c0-1.06-.859-1.918-1.913-1.918zM8.975 11.896h-6.055c-1.609 0-2.918-1.309-2.918-2.918s1.309-2.918 2.918-2.918h6.055c1.608 0 2.917 1.309 2.917 2.918s-1.309 2.918-2.917 2.918zm-6.055-4.836c-1.058 0-1.918.86-1.918 1.918s.86 1.918 1.918 1.918h6.055c1.057 0 1.917-.86 1.917-1.918s-.861-1.918-1.917-1.918zM21.066 11.896h-2.416c-.276 0-.5-.224-.5-.5v-2.418c0-1.611 1.307-2.918 2.913-2.918h.003c1.608 0 2.917 1.309 2.917 2.918s-1.308 2.918-2.917 2.918zm-1.916-1h1.916c1.057 0 1.917-.86 1.917-1.918s-.86-1.918-1.917-1.918h-.003c-1.055 0-1.913.858-1.913 1.913zM15.03 11.894c-1.607 0-2.916-1.308-2.916-2.916v-6.061c0-1.608 1.309-2.916 2.916-2.916s2.915 1.308 2.915 2.916v6.061c0 1.608-1.307 2.916-2.915 2.916zm0-10.893c-1.057 0-1.916.859-1.916 1.916v6.061c0 1.057.859 1.916 1.916 1.916 1.056 0 1.915-.859 1.915-1.916v-6.061c0-1.057-.859-1.916-1.915-1.916zM15.03 23.997c-1.606 0-2.915-1.307-2.916-2.914v-2.419c0-.276.224-.5.5-.5h2.416c1.607 0 2.915 1.308 2.915 2.917 0 1.608-1.307 2.916-2.915 2.916zm-1.916-4.832v1.918c.001 1.055.86 1.914 1.916 1.914s1.915-.859 1.915-1.916-.859-1.917-1.915-1.917h-1.916zM21.085 17.958h-6.055c-1.609 0-2.918-1.309-2.918-2.918s1.309-2.918 2.918-2.918h6.055c1.608 0 2.917 1.309 2.917 2.918s-1.309 2.918-2.917 2.918zm-6.055-4.836c-1.058 0-1.918.86-1.918 1.918s.86 1.918 1.918 1.918h6.055c1.057 0 1.917-.86 1.917-1.918s-.86-1.918-1.917-1.918z"></path>
</svg>
