<svg xmlns="http://www.w3.org/2000/svg" xmlns:xlink="http://www.w3.org/1999/xlink" width="500" zoomAndPan="magnify" viewBox="0 0 375 374.999991" height="500" preserveAspectRatio="xMidYMid meet" version="1.0"><defs><g/></defs><g fill="#000000" fill-opacity="1"><g transform="translate(7.552605, 210.001921)"><g><path d="M 40.625 -13.84375 C 42.957031 -13.84375 45.222656 -14.191406 47.421875 -14.890625 C 49.617188 -15.597656 51.234375 -16.28125 52.265625 -16.9375 L 53.8125 -18 L 60.328125 -4.96875 C 60.117188 -4.800781 59.820312 -4.582031 59.4375 -4.3125 C 59.0625 -4.039062 58.179688 -3.535156 56.796875 -2.796875 C 55.410156 -2.066406 53.929688 -1.429688 52.359375 -0.890625 C 50.785156 -0.347656 48.722656 0.132812 46.171875 0.5625 C 43.617188 1 40.984375 1.21875 38.265625 1.21875 C 32.023438 1.21875 26.109375 -0.3125 20.515625 -3.375 C 14.921875 -6.445312 10.414062 -10.664062 7 -16.03125 C 3.582031 -21.40625 1.875 -27.21875 1.875 -33.46875 C 1.875 -38.1875 2.875 -42.71875 4.875 -47.0625 C 6.882812 -51.40625 9.554688 -55.125 12.890625 -58.21875 C 16.234375 -61.3125 20.128906 -63.78125 24.578125 -65.625 C 29.035156 -67.46875 33.597656 -68.390625 38.265625 -68.390625 C 42.609375 -68.390625 46.613281 -67.875 50.28125 -66.84375 C 53.945312 -65.8125 56.535156 -64.78125 58.046875 -63.75 L 60.328125 -62.203125 L 53.8125 -49.171875 C 53.4375 -49.503906 52.867188 -49.898438 52.109375 -50.359375 C 51.347656 -50.816406 49.828125 -51.425781 47.546875 -52.1875 C 45.265625 -52.945312 42.957031 -53.328125 40.625 -53.328125 C 36.9375 -53.328125 33.625 -52.726562 30.6875 -51.53125 C 27.757812 -50.34375 25.441406 -48.769531 23.734375 -46.8125 C 22.023438 -44.863281 20.722656 -42.757812 19.828125 -40.5 C 18.929688 -38.25 18.484375 -35.957031 18.484375 -33.625 C 18.484375 -28.519531 20.394531 -23.945312 24.21875 -19.90625 C 28.050781 -15.863281 33.519531 -13.84375 40.625 -13.84375 Z M 40.625 -13.84375 "/></g></g></g><g fill="#000000" fill-opacity="1"><g transform="translate(70.49189, 210.001921)"><g><path d="M 1.875 -33.625 C 1.875 -43.34375 5.179688 -51.566406 11.796875 -58.296875 C 18.421875 -65.023438 26.40625 -68.390625 35.75 -68.390625 C 45.132812 -68.390625 53.109375 -65.035156 59.671875 -58.328125 C 66.242188 -51.628906 69.53125 -43.394531 69.53125 -33.625 C 69.53125 -23.800781 66.300781 -15.535156 59.84375 -8.828125 C 53.382812 -2.128906 45.351562 1.21875 35.75 1.21875 C 25.914062 1.21875 17.8125 -2.101562 11.4375 -8.75 C 5.0625 -15.40625 1.875 -23.695312 1.875 -33.625 Z M 18.40625 -33.625 C 18.40625 -30.09375 18.945312 -26.875 20.03125 -23.96875 C 21.113281 -21.070312 23.007812 -18.617188 25.71875 -16.609375 C 28.4375 -14.597656 31.78125 -13.59375 35.75 -13.59375 C 41.445312 -13.59375 45.742188 -15.546875 48.640625 -19.453125 C 51.546875 -23.367188 53 -28.09375 53 -33.625 C 53 -39.101562 51.519531 -43.8125 48.5625 -47.75 C 45.601562 -51.6875 41.332031 -53.65625 35.75 -53.65625 C 30.207031 -53.65625 25.929688 -51.6875 22.921875 -47.75 C 19.910156 -43.8125 18.40625 -39.101562 18.40625 -33.625 Z M 18.40625 -33.625 "/></g></g></g><g fill="#000000" fill-opacity="1"><g transform="translate(143.527484, 210.001921)"><g><path d="M 4.890625 -67.171875 L 28.90625 -67.171875 C 35.363281 -67.171875 40.628906 -65.445312 44.703125 -62 C 48.773438 -58.550781 50.8125 -53.625 50.8125 -47.21875 C 50.8125 -42.28125 49.570312 -38.140625 47.09375 -34.796875 C 44.625 -31.460938 41.273438 -29.117188 37.046875 -27.765625 L 60.171875 0 L 40.703125 0 L 20.1875 -26.546875 L 20.1875 0 L 4.890625 0 Z M 20.1875 -37.375 L 21.984375 -37.375 C 23.390625 -37.375 24.582031 -37.398438 25.5625 -37.453125 C 26.539062 -37.503906 27.65625 -37.691406 28.90625 -38.015625 C 30.15625 -38.347656 31.160156 -38.8125 31.921875 -39.40625 C 32.679688 -40 33.332031 -40.863281 33.875 -42 C 34.414062 -43.144531 34.6875 -44.53125 34.6875 -46.15625 C 34.6875 -47.789062 34.414062 -49.175781 33.875 -50.3125 C 33.332031 -51.457031 32.679688 -52.328125 31.921875 -52.921875 C 31.160156 -53.515625 30.15625 -53.972656 28.90625 -54.296875 C 27.65625 -54.628906 26.539062 -54.820312 25.5625 -54.875 C 24.582031 -54.925781 23.390625 -54.953125 21.984375 -54.953125 L 20.1875 -54.953125 Z M 20.1875 -37.375 "/></g></g></g><g fill="#000000" fill-opacity="1"><g transform="translate(203.454158, 210.001921)"><g><path d="M 0.65625 -53.734375 L 0.65625 -67.171875 L 47.875 -67.171875 L 47.875 -53.734375 L 31.921875 -53.734375 L 31.921875 0 L 16.609375 0 L 16.609375 -53.734375 Z M 0.65625 -53.734375 "/></g></g></g><g fill="#000000" fill-opacity="1"><g transform="translate(253.610221, 210.001921)"><g><path d="M 43.3125 -67.171875 L 43.3125 -53.734375 L 20.1875 -53.734375 L 20.1875 -40.390625 L 42.34375 -40.390625 L 42.34375 -26.953125 L 20.1875 -26.953125 L 20.1875 -13.4375 L 43.3125 -13.4375 L 43.3125 0 L 4.890625 0 L 4.890625 -67.171875 Z M 43.3125 -67.171875 "/></g></g></g><g fill="#000000" fill-opacity="1"><g transform="translate(302.463513, 210.001921)"><g><path d="M 67.75 0 L 47.953125 0 L 32.078125 -22.875 L 16.203125 0 L -2.765625 0 L 22.640625 -36.15625 L 1.46875 -67.171875 L 19.703125 -67.171875 L 32.078125 -48.859375 L 44.453125 -67.171875 L 63.515625 -67.171875 L 41.53125 -36.15625 Z M 67.75 0 "/></g></g></g></svg>