<svg xmlns="http://www.w3.org/2000/svg" xmlns:xlink="http://www.w3.org/1999/xlink" width="500" zoomAndPan="magnify" viewBox="0 0 375 374.999991" height="500" preserveAspectRatio="xMidYMid meet" version="1.0"><defs><clipPath id="71b840b85e"><path d="M 14 37.5 L 362 37.5 L 362 350 L 14 350 Z M 14 37.5 " clip-rule="nonzero"/></clipPath></defs><g clip-path="url(#71b840b85e)"><path fill="#000000" d="M 188.828125 37.683594 C 184.496094 37.695312 180.164062 37.863281 175.84375 38.195312 C 171.519531 38.527344 167.214844 39.019531 162.929688 39.667969 C 158.644531 40.320312 154.386719 41.128906 150.160156 42.09375 C 145.9375 43.0625 141.75 44.183594 137.609375 45.460938 C 133.464844 46.738281 129.375 48.167969 125.339844 49.75 C 121.304688 51.332031 117.332031 53.0625 113.421875 54.9375 C 109.515625 56.8125 105.683594 58.832031 101.925781 60.996094 C 98.164062 63.15625 94.492188 65.453125 90.90625 67.886719 C 87.316406 70.320312 83.824219 72.882812 80.429688 75.578125 C 77.03125 78.269531 73.738281 81.085938 70.550781 84.023438 C 67.363281 86.960938 64.289062 90.015625 61.328125 93.179688 C 58.367188 96.347656 55.527344 99.617188 52.808594 102.996094 C 50.089844 106.371094 47.5 109.847656 45.039062 113.414062 C 42.578125 116.984375 40.253906 120.640625 38.066406 124.382812 C 35.878906 128.125 33.832031 131.941406 31.925781 135.835938 C 30.019531 139.730469 28.261719 143.691406 26.652344 147.714844 C 25.039062 151.742188 23.578125 155.820312 22.269531 159.953125 C 20.964844 164.085938 19.808594 168.261719 18.8125 172.480469 C 17.8125 176.699219 16.972656 180.949219 16.292969 185.230469 C 15.609375 189.511719 15.085938 193.8125 14.722656 198.132812 C 14.359375 202.453125 14.15625 206.78125 14.117188 211.113281 C 14.074219 215.449219 14.195312 219.78125 14.472656 224.105469 C 14.753906 228.433594 15.195312 232.742188 15.792969 237.035156 C 16.394531 241.328125 17.152344 245.59375 18.070312 249.832031 C 18.988281 254.070312 20.058594 258.265625 21.289062 262.421875 C 22.515625 266.582031 23.898438 270.6875 25.433594 274.742188 C 26.964844 278.796875 28.648438 282.789062 30.476562 286.71875 C 32.308594 290.648438 34.28125 294.507812 36.398438 298.289062 C 38.515625 302.074219 40.769531 305.773438 43.160156 309.386719 C 45.550781 313.003906 48.074219 316.527344 50.726562 319.957031 C 53.378906 323.382812 56.15625 326.710938 59.054688 329.933594 C 61.957031 333.15625 64.972656 336.265625 68.101562 339.265625 C 68.839844 339.96875 69.609375 340.636719 70.40625 341.273438 C 71.203125 341.910156 72.027344 342.507812 72.875 343.074219 C 73.726562 343.636719 74.601562 344.160156 75.496094 344.644531 C 76.394531 345.128906 77.3125 345.574219 78.246094 345.976562 C 79.183594 346.382812 80.136719 346.742188 81.105469 347.0625 C 82.074219 347.382812 83.054688 347.65625 84.046875 347.890625 C 85.039062 348.121094 86.042969 348.308594 87.050781 348.453125 C 88.0625 348.59375 89.074219 348.691406 90.09375 348.746094 C 91.113281 348.800781 92.132812 348.808594 93.148438 348.769531 C 94.167969 348.730469 95.183594 348.648438 96.195312 348.519531 C 97.207031 348.394531 98.210938 348.222656 99.207031 348.003906 C 100.207031 347.789062 101.191406 347.527344 102.164062 347.222656 C 103.136719 346.917969 104.09375 346.570312 105.039062 346.179688 C 105.980469 345.792969 106.902344 345.363281 107.808594 344.890625 C 108.710938 344.417969 109.59375 343.90625 110.453125 343.359375 C 111.3125 342.808594 112.144531 342.222656 112.949219 341.597656 C 115.621094 339.617188 118.367188 337.746094 121.1875 335.980469 C 124.007812 334.21875 126.894531 332.574219 129.847656 331.042969 C 132.800781 329.511719 135.808594 328.097656 138.871094 326.804688 C 141.9375 325.515625 145.046875 324.347656 148.207031 323.304688 C 151.363281 322.261719 154.558594 321.34375 157.789062 320.558594 C 161.019531 319.769531 164.277344 319.109375 167.5625 318.582031 C 170.84375 318.054688 174.144531 317.65625 177.460938 317.390625 C 180.773438 317.125 184.09375 316.996094 187.421875 316.996094 C 190.746094 316.996094 194.066406 317.125 197.382812 317.390625 C 200.699219 317.65625 203.996094 318.054688 207.28125 318.582031 C 210.566406 319.109375 213.820312 319.769531 217.054688 320.558594 C 220.285156 321.34375 223.476562 322.261719 226.636719 323.304688 C 229.792969 324.347656 232.90625 325.515625 235.96875 326.804688 C 239.035156 328.097656 242.042969 329.511719 244.996094 331.042969 C 247.949219 332.574219 250.832031 334.21875 253.65625 335.980469 C 256.476562 337.746094 259.222656 339.617188 261.890625 341.597656 C 262.707031 342.242188 263.546875 342.847656 264.414062 343.417969 C 265.285156 343.984375 266.175781 344.511719 267.09375 345 C 268.007812 345.488281 268.945312 345.933594 269.902344 346.335938 C 270.855469 346.742188 271.828125 347.101562 272.820312 347.417969 C 273.808594 347.730469 274.808594 348.003906 275.820312 348.226562 C 276.835938 348.453125 277.855469 348.632812 278.886719 348.765625 C 279.914062 348.902344 280.949219 348.988281 281.984375 349.027344 C 283.023438 349.066406 284.058594 349.0625 285.09375 349.007812 C 286.132812 348.957031 287.164062 348.855469 288.191406 348.710938 C 289.21875 348.5625 290.238281 348.371094 291.246094 348.132812 C 292.257812 347.894531 293.253906 347.613281 294.242188 347.285156 C 295.226562 346.957031 296.191406 346.585938 297.144531 346.167969 C 298.09375 345.753906 299.027344 345.296875 299.9375 344.796875 C 300.847656 344.296875 301.730469 343.757812 302.59375 343.179688 C 303.453125 342.601562 304.289062 341.984375 305.09375 341.332031 C 305.898438 340.675781 306.675781 339.988281 307.417969 339.265625 C 310.535156 336.28125 313.535156 333.1875 316.421875 329.980469 C 319.308594 326.777344 322.074219 323.472656 324.71875 320.0625 C 327.359375 316.652344 329.875 313.152344 332.257812 309.554688 C 334.640625 305.960938 336.890625 302.285156 339 298.523438 C 341.113281 294.761719 343.082031 290.929688 344.914062 287.023438 C 346.742188 283.113281 348.421875 279.144531 349.960938 275.117188 C 351.496094 271.085938 352.878906 267.003906 354.113281 262.871094 C 355.347656 258.738281 356.425781 254.5625 357.351562 250.351562 C 358.277344 246.136719 359.046875 241.894531 359.660156 237.625 C 360.269531 233.355469 360.726562 229.070312 361.019531 224.765625 C 361.316406 220.464844 361.453125 216.15625 361.429688 211.84375 C 361.40625 207.527344 361.222656 203.222656 360.882812 198.921875 C 360.539062 194.621094 360.042969 190.339844 359.382812 186.078125 C 358.726562 181.816406 357.910156 177.582031 356.941406 173.378906 C 355.972656 169.175781 354.847656 165.015625 353.570312 160.894531 C 352.292969 156.777344 350.863281 152.710938 349.285156 148.695312 C 347.707031 144.679688 345.980469 140.730469 344.109375 136.84375 C 342.242188 132.957031 340.230469 129.144531 338.078125 125.40625 C 335.925781 121.667969 333.636719 118.015625 331.214844 114.445312 C 328.792969 110.875 326.242188 107.402344 323.5625 104.019531 C 320.886719 100.640625 318.085938 97.363281 315.164062 94.191406 C 312.242188 91.015625 309.210938 87.953125 306.0625 85.003906 C 302.914062 82.054688 299.664062 79.226562 296.304688 76.515625 C 292.949219 73.808594 289.496094 71.226562 285.949219 68.773438 C 282.402344 66.316406 278.769531 63.996094 275.050781 61.8125 C 271.332031 59.625 267.539062 57.582031 263.667969 55.675781 C 259.800781 53.769531 255.863281 52.011719 251.863281 50.394531 C 247.863281 48.78125 243.8125 47.316406 239.703125 46 C 235.59375 44.6875 231.445312 43.523438 227.25 42.515625 C 223.054688 41.507812 218.832031 40.65625 214.574219 39.960938 C 210.316406 39.265625 206.039062 38.726562 201.742188 38.347656 C 197.449219 37.96875 193.140625 37.746094 188.828125 37.683594 M 187.851562 299.667969 C 186.414062 299.714844 184.972656 299.726562 183.535156 299.699219 C 182.09375 299.671875 180.65625 299.609375 179.222656 299.507812 C 177.785156 299.410156 176.351562 299.273438 174.921875 299.101562 C 173.492188 298.925781 172.070312 298.71875 170.652344 298.472656 C 169.230469 298.226562 167.820312 297.945312 166.417969 297.628906 C 165.011719 297.3125 163.617188 296.960938 162.230469 296.570312 C 160.84375 296.183594 159.46875 295.757812 158.101562 295.300781 C 156.738281 294.84375 155.386719 294.351562 154.046875 293.824219 C 152.707031 293.296875 151.378906 292.734375 150.070312 292.140625 C 148.757812 291.546875 147.464844 290.917969 146.183594 290.257812 C 144.90625 289.597656 143.644531 288.90625 142.398438 288.179688 C 141.15625 287.453125 139.929688 286.699219 138.722656 285.910156 C 137.519531 285.125 136.335938 284.308594 135.171875 283.460938 C 134.007812 282.613281 132.863281 281.734375 131.746094 280.832031 C 130.625 279.925781 129.53125 278.992188 128.460938 278.03125 C 127.386719 277.066406 126.339844 276.082031 125.320312 275.066406 C 124.296875 274.050781 123.304688 273.011719 122.335938 271.945312 C 121.367188 270.878906 120.425781 269.789062 119.511719 268.679688 C 118.597656 267.566406 117.714844 266.429688 116.859375 265.269531 C 116.003906 264.113281 115.179688 262.933594 114.382812 261.734375 C 113.589844 260.53125 112.824219 259.3125 112.09375 258.074219 C 111.359375 256.835938 110.65625 255.578125 109.988281 254.300781 C 109.320312 253.027344 108.683594 251.738281 108.082031 250.429688 C 107.476562 249.121094 106.90625 247.800781 106.371094 246.464844 C 105.835938 245.128906 105.332031 243.777344 104.867188 242.417969 C 104.398438 241.054688 103.964844 239.683594 103.570312 238.300781 C 103.171875 236.914062 102.808594 235.523438 102.484375 234.121094 C 102.15625 232.71875 101.867188 231.308594 101.609375 229.890625 C 101.355469 228.472656 101.136719 227.050781 100.957031 225.625 C 100.773438 224.195312 100.628906 222.761719 100.519531 221.328125 C 100.40625 219.890625 100.335938 218.453125 100.300781 217.015625 C 100.261719 215.574219 100.261719 214.136719 100.300781 212.695312 C 100.25 211.242188 100.238281 209.789062 100.261719 208.332031 C 100.289062 206.878906 100.347656 205.425781 100.445312 203.972656 C 100.542969 202.519531 100.675781 201.070312 100.847656 199.625 C 101.015625 198.179688 101.222656 196.738281 101.464844 195.304688 C 101.707031 193.871094 101.984375 192.441406 102.296875 191.019531 C 102.609375 189.597656 102.960938 188.1875 103.34375 186.78125 C 103.726562 185.378906 104.148438 183.984375 104.601562 182.601562 C 105.054688 181.222656 105.542969 179.851562 106.066406 178.492188 C 106.589844 177.132812 107.148438 175.789062 107.738281 174.460938 C 108.328125 173.128906 108.953125 171.816406 109.609375 170.515625 C 110.265625 169.21875 110.953125 167.933594 111.671875 166.671875 C 112.394531 165.40625 113.144531 164.160156 113.929688 162.933594 C 114.710938 161.707031 115.523438 160.5 116.367188 159.316406 C 117.210938 158.128906 118.085938 156.964844 118.988281 155.824219 C 119.886719 154.679688 120.820312 153.5625 121.777344 152.464844 C 122.734375 151.371094 123.71875 150.300781 124.730469 149.253906 C 125.742188 148.207031 126.78125 147.1875 127.84375 146.191406 C 128.90625 145.199219 129.992188 144.230469 131.105469 143.292969 C 132.214844 142.351562 133.351562 141.441406 134.507812 140.558594 C 135.664062 139.675781 136.84375 138.824219 138.042969 138 C 139.242188 137.175781 140.460938 136.382812 141.703125 135.621094 C 142.941406 134.855469 144.199219 134.125 145.476562 133.425781 C 146.75 132.726562 148.042969 132.058594 149.355469 131.425781 C 150.664062 130.789062 151.988281 130.1875 153.328125 129.621094 C 154.667969 129.054688 156.023438 128.519531 157.386719 128.019531 C 158.753906 127.519531 160.132812 127.050781 161.523438 126.621094 C 162.914062 126.191406 164.3125 125.792969 165.722656 125.433594 C 167.132812 125.070312 168.550781 124.746094 169.976562 124.457031 C 171.402344 124.167969 172.835938 123.914062 174.273438 123.695312 C 175.714844 123.476562 177.15625 123.292969 178.605469 123.148438 C 180.054688 123.003906 181.503906 122.894531 182.957031 122.820312 C 184.410156 122.75 185.867188 122.710938 187.320312 122.710938 C 188.777344 122.710938 190.230469 122.75 191.683594 122.820312 C 193.136719 122.894531 194.589844 123.003906 196.035156 123.148438 C 197.484375 123.292969 198.929688 123.476562 200.367188 123.695312 C 201.804688 123.914062 203.238281 124.167969 204.664062 124.457031 C 206.089844 124.746094 207.507812 125.070312 208.917969 125.433594 C 210.328125 125.792969 211.730469 126.191406 213.117188 126.621094 C 214.507812 127.050781 215.886719 127.519531 217.253906 128.019531 C 218.621094 128.519531 219.972656 129.054688 221.3125 129.621094 C 222.652344 130.1875 223.976562 130.789062 225.289062 131.425781 C 226.597656 132.058594 227.890625 132.726562 229.167969 133.425781 C 230.441406 134.125 231.699219 134.855469 232.941406 135.621094 C 234.179688 136.382812 235.398438 137.175781 236.601562 138 C 237.800781 138.824219 238.976562 139.675781 240.136719 140.558594 C 241.292969 141.441406 242.425781 142.351562 243.539062 143.292969 C 244.648438 144.230469 245.734375 145.199219 246.800781 146.191406 C 247.863281 147.1875 248.898438 148.207031 249.910156 149.253906 C 250.921875 150.300781 251.90625 151.371094 252.867188 152.464844 C 253.824219 153.5625 254.753906 154.679688 255.65625 155.824219 C 256.558594 156.964844 257.429688 158.128906 258.273438 159.316406 C 259.117188 160.5 259.929688 161.707031 260.714844 162.933594 C 261.496094 164.160156 262.25 165.40625 262.96875 166.671875 C 263.6875 167.933594 264.378906 169.21875 265.035156 170.515625 C 265.691406 171.816406 266.3125 173.128906 266.902344 174.460938 C 267.496094 175.789062 268.050781 177.132812 268.574219 178.492188 C 269.097656 179.851562 269.585938 181.222656 270.039062 182.601562 C 270.496094 183.984375 270.914062 185.378906 271.296875 186.78125 C 271.683594 188.1875 272.03125 189.597656 272.34375 191.019531 C 272.660156 192.441406 272.9375 193.871094 273.179688 195.304688 C 273.421875 196.738281 273.625 198.179688 273.796875 199.625 C 273.964844 201.070312 274.097656 202.519531 274.195312 203.972656 C 274.292969 205.425781 274.355469 206.878906 274.378906 208.332031 C 274.402344 209.789062 274.390625 211.242188 274.339844 212.695312 C 274.378906 214.128906 274.382812 215.5625 274.347656 216.996094 C 274.3125 218.429688 274.242188 219.863281 274.136719 221.292969 C 274.027344 222.722656 273.882812 224.148438 273.703125 225.574219 C 273.527344 226.996094 273.308594 228.414062 273.058594 229.824219 C 272.808594 231.234375 272.519531 232.640625 272.195312 234.039062 C 271.875 235.433594 271.515625 236.824219 271.121094 238.203125 C 270.730469 239.582031 270.300781 240.949219 269.839844 242.304688 C 269.375 243.664062 268.878906 245.007812 268.347656 246.339844 C 267.816406 247.671875 267.253906 248.992188 266.65625 250.292969 C 266.058594 251.597656 265.425781 252.882812 264.761719 254.15625 C 264.101562 255.425781 263.40625 256.679688 262.679688 257.917969 C 261.949219 259.152344 261.191406 260.371094 260.40625 261.566406 C 259.617188 262.765625 258.796875 263.941406 257.949219 265.097656 C 257.101562 266.253906 256.222656 267.386719 255.316406 268.5 C 254.410156 269.613281 253.476562 270.699219 252.515625 271.761719 C 251.554688 272.828125 250.566406 273.867188 249.554688 274.878906 C 248.539062 275.894531 247.5 276.882812 246.4375 277.84375 C 245.371094 278.804688 244.285156 279.738281 243.171875 280.644531 C 242.0625 281.550781 240.925781 282.425781 239.769531 283.277344 C 238.613281 284.125 237.4375 284.941406 236.242188 285.730469 C 235.042969 286.519531 233.824219 287.277344 232.589844 288.003906 C 231.355469 288.730469 230.101562 289.425781 228.828125 290.089844 C 227.558594 290.753906 226.269531 291.382812 224.964844 291.984375 C 223.664062 292.582031 222.34375 293.144531 221.011719 293.675781 C 219.679688 294.207031 218.335938 294.703125 216.980469 295.167969 C 215.621094 295.628906 214.253906 296.058594 212.875 296.449219 C 211.496094 296.84375 210.105469 297.203125 208.710938 297.523438 C 207.3125 297.847656 205.910156 298.132812 204.496094 298.386719 C 203.085938 298.636719 201.667969 298.851562 200.246094 299.03125 C 198.820312 299.210938 197.394531 299.355469 195.964844 299.460938 C 194.535156 299.570312 193.105469 299.640625 191.671875 299.675781 C 190.238281 299.710938 188.804688 299.707031 187.371094 299.667969 " fill-opacity="1" fill-rule="evenodd"/></g></svg>