<svg xmlns="http://www.w3.org/2000/svg" xmlns:xlink="http://www.w3.org/1999/xlink" width="500" zoomAndPan="magnify" viewBox="0 0 375 374.999991" height="500" preserveAspectRatio="xMidYMid meet" version="1.0"><defs><g/><clipPath id="6b253095fe"><path d="M 133 106.652344 L 242 106.652344 L 242 204 L 133 204 Z M 133 106.652344 " clip-rule="nonzero"/></clipPath><clipPath id="93648acdc2"><path d="M 72 4 L 76 4 L 76 9.601562 L 72 9.601562 Z M 72 4 " clip-rule="nonzero"/></clipPath><clipPath id="22de387feb"><rect x="0" width="109" y="0" height="10"/></clipPath></defs><g clip-path="url(#6b253095fe)"><path fill="#ffffff" d="M 187.910156 106.707031 C 186.558594 106.710938 185.210938 106.765625 183.867188 106.867188 C 182.519531 106.96875 181.179688 107.121094 179.847656 107.324219 C 178.511719 107.527344 177.1875 107.78125 175.871094 108.082031 C 174.554688 108.382812 173.253906 108.730469 171.964844 109.128906 C 170.675781 109.527344 169.402344 109.972656 168.144531 110.464844 C 166.886719 110.957031 165.652344 111.496094 164.433594 112.078125 C 163.21875 112.664062 162.023438 113.292969 160.855469 113.964844 C 159.683594 114.636719 158.542969 115.351562 157.425781 116.109375 C 156.308594 116.867188 155.222656 117.667969 154.164062 118.503906 C 153.105469 119.34375 152.082031 120.21875 151.089844 121.132812 C 150.097656 122.046875 149.136719 123 148.214844 123.984375 C 147.292969 124.96875 146.410156 125.988281 145.566406 127.039062 C 144.71875 128.089844 143.914062 129.171875 143.144531 130.285156 C 142.378906 131.394531 141.65625 132.535156 140.976562 133.699219 C 140.292969 134.863281 139.65625 136.050781 139.0625 137.265625 C 138.46875 138.476562 137.921875 139.710938 137.421875 140.960938 C 136.917969 142.214844 136.464844 143.484375 136.058594 144.769531 C 135.652344 146.058594 135.292969 147.359375 134.980469 148.671875 C 134.671875 149.984375 134.410156 151.308594 134.195312 152.640625 C 133.984375 153.972656 133.820312 155.3125 133.707031 156.65625 C 133.59375 158.003906 133.53125 159.347656 133.519531 160.699219 C 133.507812 162.046875 133.542969 163.398438 133.628906 164.742188 C 133.71875 166.089844 133.855469 167.433594 134.042969 168.769531 C 134.230469 170.105469 134.464844 171.433594 134.75 172.75 C 135.035156 174.070312 135.371094 175.378906 135.753906 176.671875 C 136.132812 177.964844 136.566406 179.246094 137.042969 180.507812 C 137.519531 181.769531 138.042969 183.011719 138.613281 184.234375 C 139.183594 185.460938 139.796875 186.660156 140.457031 187.835938 C 141.113281 189.015625 141.816406 190.167969 142.5625 191.292969 C 143.304688 192.417969 144.089844 193.515625 144.917969 194.582031 C 145.742188 195.648438 146.605469 196.683594 147.507812 197.6875 C 148.414062 198.691406 149.351562 199.660156 150.324219 200.59375 C 150.785156 201.03125 151.28125 201.429688 151.8125 201.777344 C 152.34375 202.128906 152.898438 202.429688 153.484375 202.683594 C 154.066406 202.933594 154.671875 203.132812 155.289062 203.277344 C 155.910156 203.421875 156.535156 203.511719 157.171875 203.546875 C 157.808594 203.578125 158.441406 203.554688 159.070312 203.476562 C 159.703125 203.394531 160.324219 203.261719 160.929688 203.070312 C 161.535156 202.882812 162.121094 202.640625 162.6875 202.34375 C 163.25 202.050781 163.785156 201.707031 164.289062 201.320312 C 165.953125 200.085938 167.707031 198.988281 169.546875 198.035156 C 171.390625 197.078125 173.292969 196.277344 175.261719 195.625 C 177.234375 194.972656 179.242188 194.484375 181.289062 194.15625 C 183.335938 193.824219 185.398438 193.660156 187.472656 193.660156 C 189.546875 193.660156 191.605469 193.824219 193.652344 194.15625 C 195.703125 194.484375 197.710938 194.972656 199.679688 195.625 C 201.648438 196.277344 203.554688 197.078125 205.394531 198.035156 C 207.234375 198.988281 208.988281 200.085938 210.65625 201.320312 C 211.164062 201.722656 211.703125 202.074219 212.273438 202.378906 C 212.84375 202.683594 213.441406 202.933594 214.054688 203.132812 C 214.671875 203.328125 215.304688 203.46875 215.945312 203.550781 C 216.585938 203.636719 217.230469 203.660156 217.878906 203.625 C 218.523438 203.59375 219.164062 203.503906 219.792969 203.355469 C 220.425781 203.207031 221.035156 203.003906 221.628906 202.742188 C 222.222656 202.484375 222.789062 202.175781 223.324219 201.8125 C 223.863281 201.453125 224.363281 201.046875 224.828125 200.59375 C 226.769531 198.734375 228.566406 196.742188 230.214844 194.617188 C 231.859375 192.488281 233.34375 190.253906 234.660156 187.910156 C 235.976562 185.566406 237.113281 183.136719 238.070312 180.625 C 239.027344 178.109375 239.796875 175.539062 240.371094 172.914062 C 240.949219 170.285156 241.332031 167.632812 241.515625 164.949219 C 241.699219 162.265625 241.683594 159.585938 241.472656 156.902344 C 241.257812 154.222656 240.851562 151.570312 240.246094 148.953125 C 239.640625 146.332031 238.84375 143.769531 237.863281 141.265625 C 236.878906 138.765625 235.714844 136.347656 234.371094 134.015625 C 233.03125 131.6875 231.523438 129.46875 229.855469 127.359375 C 228.183594 125.25 226.367188 123.277344 224.40625 121.4375 C 222.441406 119.601562 220.355469 117.914062 218.144531 116.386719 C 215.933594 114.855469 213.621094 113.496094 211.207031 112.308594 C 208.796875 111.121094 206.308594 110.117188 203.746094 109.296875 C 201.1875 108.476562 198.578125 107.851562 195.925781 107.417969 C 193.269531 106.984375 190.597656 106.746094 187.910156 106.707031 M 187.605469 188.265625 C 186.710938 188.296875 185.8125 188.28125 184.917969 188.21875 C 184.023438 188.15625 183.132812 188.046875 182.25 187.894531 C 181.367188 187.742188 180.492188 187.542969 179.628906 187.300781 C 178.765625 187.0625 177.914062 186.777344 177.082031 186.445312 C 176.246094 186.117188 175.429688 185.75 174.632812 185.335938 C 173.835938 184.925781 173.0625 184.472656 172.3125 183.984375 C 171.558594 183.492188 170.835938 182.964844 170.140625 182.402344 C 169.441406 181.839844 168.773438 181.238281 168.136719 180.609375 C 167.5 179.976562 166.898438 179.3125 166.332031 178.617188 C 165.761719 177.925781 165.230469 177.203125 164.734375 176.457031 C 164.238281 175.710938 163.78125 174.9375 163.367188 174.144531 C 162.949219 173.347656 162.574219 172.535156 162.238281 171.703125 C 161.90625 170.871094 161.613281 170.023438 161.367188 169.160156 C 161.121094 168.300781 160.917969 167.425781 160.757812 166.542969 C 160.597656 165.660156 160.484375 164.773438 160.417969 163.878906 C 160.347656 162.984375 160.328125 162.089844 160.347656 161.191406 C 160.320312 160.285156 160.335938 159.378906 160.394531 158.476562 C 160.457031 157.570312 160.5625 156.671875 160.710938 155.777344 C 160.863281 154.882812 161.058594 154 161.296875 153.125 C 161.535156 152.25 161.820312 151.390625 162.144531 150.542969 C 162.472656 149.695312 162.839844 148.871094 163.246094 148.058594 C 163.65625 147.25 164.105469 146.464844 164.59375 145.699219 C 165.078125 144.933594 165.605469 144.199219 166.167969 143.484375 C 166.730469 142.773438 167.324219 142.09375 167.953125 141.441406 C 168.585938 140.789062 169.246094 140.171875 169.9375 139.585938 C 170.632812 139 171.351562 138.449219 172.097656 137.9375 C 172.847656 137.421875 173.617188 136.949219 174.414062 136.511719 C 175.207031 136.078125 176.023438 135.683594 176.859375 135.328125 C 177.691406 134.976562 178.542969 134.664062 179.410156 134.394531 C 180.273438 134.125 181.152344 133.902344 182.039062 133.722656 C 182.929688 133.539062 183.824219 133.40625 184.726562 133.3125 C 185.628906 133.222656 186.535156 133.179688 187.441406 133.179688 C 188.347656 133.179688 189.25 133.222656 190.152344 133.3125 C 191.054688 133.40625 191.949219 133.539062 192.839844 133.722656 C 193.726562 133.902344 194.605469 134.125 195.472656 134.394531 C 196.335938 134.664062 197.1875 134.976562 198.023438 135.328125 C 198.855469 135.683594 199.671875 136.078125 200.46875 136.511719 C 201.261719 136.949219 202.035156 137.421875 202.78125 137.9375 C 203.527344 138.449219 204.25 139 204.941406 139.585938 C 205.632812 140.171875 206.292969 140.789062 206.925781 141.441406 C 207.554688 142.09375 208.152344 142.773438 208.714844 143.484375 C 209.273438 144.199219 209.800781 144.933594 210.289062 145.699219 C 210.777344 146.464844 211.222656 147.25 211.632812 148.058594 C 212.042969 148.871094 212.410156 149.695312 212.734375 150.542969 C 213.0625 151.390625 213.34375 152.25 213.582031 153.125 C 213.824219 154 214.019531 154.882812 214.167969 155.777344 C 214.320312 156.671875 214.425781 157.570312 214.484375 158.476562 C 214.546875 159.378906 214.5625 160.285156 214.53125 161.191406 C 214.554688 162.085938 214.53125 162.976562 214.464844 163.867188 C 214.398438 164.757812 214.289062 165.644531 214.132812 166.523438 C 213.976562 167.402344 213.773438 168.273438 213.527344 169.132812 C 213.285156 169.992188 212.996094 170.835938 212.664062 171.664062 C 212.335938 172.496094 211.960938 173.304688 211.550781 174.097656 C 211.136719 174.890625 210.683594 175.660156 210.191406 176.40625 C 209.699219 177.152344 209.171875 177.871094 208.609375 178.5625 C 208.042969 179.257812 207.445312 179.917969 206.8125 180.550781 C 206.183594 181.183594 205.519531 181.78125 204.828125 182.34375 C 204.136719 182.910156 203.414062 183.4375 202.667969 183.929688 C 201.921875 184.417969 201.152344 184.871094 200.363281 185.285156 C 199.570312 185.699219 198.757812 186.070312 197.929688 186.402344 C 197.097656 186.730469 196.253906 187.019531 195.394531 187.265625 C 194.535156 187.511719 193.667969 187.710938 192.789062 187.867188 C 191.90625 188.023438 191.023438 188.136719 190.132812 188.203125 C 189.242188 188.269531 188.347656 188.289062 187.457031 188.265625 " fill-opacity="1" fill-rule="evenodd"/></g><g fill="#ffffff" fill-opacity="1"><g transform="translate(122.463395, 235.220814)"><g><path d="M 14.6875 -5 C 15.53125 -5 16.347656 -5.125 17.140625 -5.375 C 17.941406 -5.632812 18.53125 -5.882812 18.90625 -6.125 L 19.453125 -6.5 L 21.8125 -1.796875 C 21.738281 -1.734375 21.628906 -1.648438 21.484375 -1.546875 C 21.347656 -1.453125 21.03125 -1.273438 20.53125 -1.015625 C 20.03125 -0.753906 19.492188 -0.523438 18.921875 -0.328125 C 18.359375 -0.128906 17.613281 0.046875 16.6875 0.203125 C 15.769531 0.359375 14.816406 0.4375 13.828125 0.4375 C 11.578125 0.4375 9.441406 -0.113281 7.421875 -1.21875 C 5.398438 -2.332031 3.769531 -3.859375 2.53125 -5.796875 C 1.289062 -7.742188 0.671875 -9.84375 0.671875 -12.09375 C 0.671875 -13.800781 1.035156 -15.441406 1.765625 -17.015625 C 2.492188 -18.585938 3.457031 -19.929688 4.65625 -21.046875 C 5.863281 -22.160156 7.269531 -23.050781 8.875 -23.71875 C 10.488281 -24.394531 12.140625 -24.734375 13.828125 -24.734375 C 15.398438 -24.734375 16.847656 -24.546875 18.171875 -24.171875 C 19.503906 -23.796875 20.441406 -23.421875 20.984375 -23.046875 L 21.8125 -22.484375 L 19.453125 -17.78125 C 19.316406 -17.894531 19.109375 -18.035156 18.828125 -18.203125 C 18.554688 -18.367188 18.007812 -18.585938 17.1875 -18.859375 C 16.363281 -19.140625 15.53125 -19.28125 14.6875 -19.28125 C 13.351562 -19.28125 12.15625 -19.0625 11.09375 -18.625 C 10.039062 -18.195312 9.203125 -17.628906 8.578125 -16.921875 C 7.960938 -16.210938 7.492188 -15.453125 7.171875 -14.640625 C 6.847656 -13.828125 6.6875 -13 6.6875 -12.15625 C 6.6875 -10.3125 7.375 -8.65625 8.75 -7.1875 C 10.132812 -5.726562 12.113281 -5 14.6875 -5 Z M 14.6875 -5 "/></g></g></g><g fill="#ffffff" fill-opacity="1"><g transform="translate(145.209704, 235.220814)"><g><path d="M 0.671875 -12.15625 C 0.671875 -15.664062 1.867188 -18.640625 4.265625 -21.078125 C 6.660156 -23.515625 9.546875 -24.734375 12.921875 -24.734375 C 16.316406 -24.734375 19.203125 -23.519531 21.578125 -21.09375 C 23.953125 -18.664062 25.140625 -15.6875 25.140625 -12.15625 C 25.140625 -8.601562 23.972656 -5.613281 21.640625 -3.1875 C 19.304688 -0.769531 16.398438 0.4375 12.921875 0.4375 C 9.367188 0.4375 6.4375 -0.757812 4.125 -3.15625 C 1.820312 -5.5625 0.671875 -8.5625 0.671875 -12.15625 Z M 6.65625 -12.15625 C 6.65625 -10.882812 6.847656 -9.722656 7.234375 -8.671875 C 7.628906 -7.617188 8.316406 -6.726562 9.296875 -6 C 10.285156 -5.28125 11.492188 -4.921875 12.921875 -4.921875 C 14.984375 -4.921875 16.535156 -5.625 17.578125 -7.03125 C 18.628906 -8.445312 19.15625 -10.15625 19.15625 -12.15625 C 19.15625 -14.132812 18.617188 -15.835938 17.546875 -17.265625 C 16.484375 -18.691406 14.941406 -19.40625 12.921875 -19.40625 C 10.921875 -19.40625 9.375 -18.691406 8.28125 -17.265625 C 7.195312 -15.835938 6.65625 -14.132812 6.65625 -12.15625 Z M 6.65625 -12.15625 "/></g></g></g><g fill="#ffffff" fill-opacity="1"><g transform="translate(171.604813, 235.220814)"><g><path d="M 1.765625 -24.28125 L 10.453125 -24.28125 C 12.785156 -24.28125 14.6875 -23.65625 16.15625 -22.40625 C 17.632812 -21.164062 18.375 -19.390625 18.375 -17.078125 C 18.375 -15.285156 17.925781 -13.785156 17.03125 -12.578125 C 16.132812 -11.378906 14.921875 -10.53125 13.390625 -10.03125 L 21.75 0 L 14.71875 0 L 7.296875 -9.59375 L 7.296875 0 L 1.765625 0 Z M 7.296875 -13.515625 L 7.953125 -13.515625 C 8.460938 -13.515625 8.890625 -13.523438 9.234375 -13.546875 C 9.585938 -13.566406 9.988281 -13.632812 10.4375 -13.75 C 10.894531 -13.863281 11.257812 -14.03125 11.53125 -14.25 C 11.8125 -14.46875 12.050781 -14.78125 12.25 -15.1875 C 12.445312 -15.601562 12.546875 -16.101562 12.546875 -16.6875 C 12.546875 -17.28125 12.445312 -17.78125 12.25 -18.1875 C 12.050781 -18.601562 11.8125 -18.914062 11.53125 -19.125 C 11.257812 -19.34375 10.894531 -19.507812 10.4375 -19.625 C 9.988281 -19.75 9.585938 -19.820312 9.234375 -19.84375 C 8.890625 -19.863281 8.460938 -19.875 7.953125 -19.875 L 7.296875 -19.875 Z M 7.296875 -13.515625 "/></g></g></g><g fill="#ffffff" fill-opacity="1"><g transform="translate(193.262367, 235.220814)"><g><path d="M 0.234375 -19.421875 L 0.234375 -24.28125 L 17.3125 -24.28125 L 17.3125 -19.421875 L 11.546875 -19.421875 L 11.546875 0 L 6 0 L 6 -19.421875 Z M 0.234375 -19.421875 "/></g></g></g><g fill="#ffffff" fill-opacity="1"><g transform="translate(211.388823, 235.220814)"><g><path d="M 15.65625 -24.28125 L 15.65625 -19.421875 L 7.296875 -19.421875 L 7.296875 -14.59375 L 15.3125 -14.59375 L 15.3125 -9.75 L 7.296875 -9.75 L 7.296875 -4.859375 L 15.65625 -4.859375 L 15.65625 0 L 1.765625 0 L 1.765625 -24.28125 Z M 15.65625 -24.28125 "/></g></g></g><g fill="#ffffff" fill-opacity="1"><g transform="translate(229.044469, 235.220814)"><g><path d="M 24.484375 0 L 17.34375 0 L 11.59375 -8.265625 L 5.859375 0 L -1 0 L 8.1875 -13.0625 L 0.53125 -24.28125 L 7.125 -24.28125 L 11.59375 -17.65625 L 16.078125 -24.28125 L 22.96875 -24.28125 L 15.015625 -13.0625 Z M 24.484375 0 "/></g></g></g><g transform="matrix(1, 0, 0, 1, 134, 240)"><g clip-path="url(#22de387feb)"><g fill="#ffffff" fill-opacity="1"><g transform="translate(1.185104, 7.585572)"><g><path d="M 5.359375 -1.59375 C 5.171875 -1.09375 4.851562 -0.691406 4.40625 -0.390625 C 3.96875 -0.078125 3.484375 0.078125 2.953125 0.078125 C 2.222656 0.078125 1.601562 -0.1875 1.09375 -0.71875 C 0.59375 -1.238281 0.34375 -1.863281 0.34375 -2.59375 C 0.34375 -2.957031 0.410156 -3.304688 0.546875 -3.640625 C 0.679688 -3.960938 0.863281 -4.242188 1.09375 -4.484375 C 1.601562 -5.015625 2.222656 -5.28125 2.953125 -5.28125 C 3.484375 -5.28125 3.96875 -5.128906 4.40625 -4.828125 C 4.84375 -4.523438 5.160156 -4.125 5.359375 -3.625 L 4.765625 -3.625 C 4.484375 -4.144531 4.0625 -4.488281 3.5 -4.65625 C 3.320312 -4.707031 3.113281 -4.734375 2.875 -4.734375 C 2.632812 -4.734375 2.382812 -4.675781 2.125 -4.5625 C 1.875 -4.445312 1.660156 -4.289062 1.484375 -4.09375 C 1.078125 -3.675781 0.875 -3.175781 0.875 -2.59375 C 0.875 -2.019531 1.078125 -1.523438 1.484375 -1.109375 C 1.890625 -0.679688 2.378906 -0.46875 2.953125 -0.46875 C 3.335938 -0.46875 3.691406 -0.570312 4.015625 -0.78125 C 4.335938 -0.988281 4.585938 -1.257812 4.765625 -1.59375 Z M 5.359375 -1.59375 "/></g></g></g><g fill="#ffffff" fill-opacity="1"><g transform="translate(8.833965, 7.585572)"><g><path d="M 2.90625 -0.578125 C 2.65625 -0.148438 2.28125 0.0625 1.78125 0.0625 C 1.40625 0.0625 1.109375 -0.0625 0.890625 -0.3125 C 0.679688 -0.5625 0.578125 -0.878906 0.578125 -1.265625 L 0.578125 -3.375 L 1.109375 -3.375 L 1.109375 -1.265625 C 1.109375 -1.046875 1.160156 -0.859375 1.265625 -0.703125 C 1.359375 -0.546875 1.519531 -0.46875 1.75 -0.46875 C 2.175781 -0.46875 2.472656 -0.597656 2.640625 -0.859375 C 2.816406 -1.128906 2.90625 -1.5 2.90625 -1.96875 L 2.90625 -3.375 L 3.4375 -3.375 L 3.4375 0 L 2.90625 0 Z M 2.90625 -0.578125 "/></g></g></g><g fill="#ffffff" fill-opacity="1"><g transform="translate(14.793317, 7.585572)"><g><path d="M 1.0625 -0.484375 C 1.195312 -0.390625 1.375 -0.34375 1.59375 -0.34375 C 2.082031 -0.34375 2.328125 -0.523438 2.328125 -0.890625 C 2.328125 -1.109375 2.148438 -1.273438 1.796875 -1.390625 C 1.648438 -1.441406 1.488281 -1.488281 1.3125 -1.53125 C 1.144531 -1.570312 0.988281 -1.625 0.84375 -1.6875 C 0.664062 -1.769531 0.53125 -1.875 0.4375 -2 C 0.351562 -2.113281 0.3125 -2.257812 0.3125 -2.4375 C 0.3125 -2.769531 0.429688 -3.019531 0.671875 -3.1875 C 0.898438 -3.363281 1.179688 -3.453125 1.515625 -3.453125 C 1.835938 -3.453125 2.109375 -3.382812 2.328125 -3.25 C 2.535156 -3.113281 2.679688 -2.878906 2.765625 -2.546875 L 2.1875 -2.546875 C 2.125 -2.734375 2.035156 -2.859375 1.921875 -2.921875 C 1.804688 -2.972656 1.664062 -3 1.5 -3 C 1.332031 -3 1.1875 -2.96875 1.0625 -2.90625 C 0.9375 -2.820312 0.875 -2.707031 0.875 -2.5625 C 0.875 -2.40625 0.925781 -2.289062 1.03125 -2.21875 C 1.132812 -2.15625 1.257812 -2.097656 1.40625 -2.046875 C 1.550781 -2.003906 1.710938 -1.960938 1.890625 -1.921875 C 2.054688 -1.878906 2.21875 -1.820312 2.375 -1.75 C 2.71875 -1.59375 2.890625 -1.332031 2.890625 -0.96875 C 2.890625 -0.601562 2.757812 -0.332031 2.5 -0.15625 C 2.363281 -0.0703125 2.21875 -0.0078125 2.0625 0.03125 C 1.90625 0.0703125 1.738281 0.09375 1.5625 0.09375 C 0.78125 0.09375 0.328125 -0.25 0.203125 -0.9375 L 0.78125 -0.9375 C 0.832031 -0.71875 0.925781 -0.566406 1.0625 -0.484375 Z M 1.0625 -0.484375 "/></g></g></g><g fill="#ffffff" fill-opacity="1"><g transform="translate(19.930951, 7.585572)"><g><path d="M 0.15625 -2.875 L 0.15625 -3.375 L 1 -3.375 L 1 -4.6875 L 1.53125 -4.6875 L 1.53125 -3.375 L 2.375 -3.375 L 2.375 -2.875 L 1.53125 -2.875 L 1.53125 0 L 1 0 L 1 -2.875 Z M 0.15625 -2.875 "/></g></g></g><g fill="#ffffff" fill-opacity="1"><g transform="translate(24.507973, 7.585572)"><g><path d="M 3.34375 -1.703125 C 3.34375 -2.035156 3.222656 -2.320312 2.984375 -2.5625 C 2.734375 -2.8125 2.441406 -2.9375 2.109375 -2.9375 C 1.773438 -2.9375 1.488281 -2.8125 1.25 -2.5625 C 1 -2.320312 0.875 -2.035156 0.875 -1.703125 C 0.875 -1.367188 1 -1.082031 1.25 -0.84375 C 1.488281 -0.601562 1.773438 -0.484375 2.109375 -0.484375 C 2.441406 -0.484375 2.734375 -0.601562 2.984375 -0.84375 C 3.222656 -1.082031 3.34375 -1.367188 3.34375 -1.703125 Z M 3.875 -1.703125 C 3.875 -1.210938 3.703125 -0.796875 3.359375 -0.453125 C 3.003906 -0.117188 2.585938 0.046875 2.109375 0.046875 C 1.628906 0.046875 1.210938 -0.117188 0.859375 -0.453125 C 0.515625 -0.796875 0.34375 -1.210938 0.34375 -1.703125 C 0.34375 -2.191406 0.515625 -2.609375 0.859375 -2.953125 C 1.203125 -3.296875 1.617188 -3.46875 2.109375 -3.46875 C 2.597656 -3.46875 3.015625 -3.296875 3.359375 -2.953125 C 3.703125 -2.609375 3.875 -2.191406 3.875 -1.703125 Z M 3.875 -1.703125 "/></g></g></g><g fill="#ffffff" fill-opacity="1"><g transform="translate(30.782189, 7.585572)"><g><path d="M 4.859375 -0.015625 L 4.859375 -2.125 C 4.859375 -2.46875 4.75 -2.710938 4.53125 -2.859375 C 4.445312 -2.910156 4.328125 -2.9375 4.171875 -2.9375 C 4.015625 -2.9375 3.867188 -2.890625 3.734375 -2.796875 C 3.585938 -2.703125 3.476562 -2.582031 3.40625 -2.4375 C 3.375 -2.382812 3.34375 -2.320312 3.3125 -2.25 C 3.3125 -2.207031 3.3125 -2.164062 3.3125 -2.125 L 3.3125 -0.015625 L 2.78125 -0.015625 L 2.78125 -2.125 C 2.78125 -2.46875 2.671875 -2.710938 2.453125 -2.859375 C 2.367188 -2.910156 2.25 -2.9375 2.09375 -2.9375 C 1.9375 -2.9375 1.789062 -2.890625 1.65625 -2.796875 C 1.507812 -2.703125 1.394531 -2.582031 1.3125 -2.4375 C 1.207031 -2.25 1.140625 -2.015625 1.109375 -1.734375 L 1.109375 -0.015625 L 0.578125 -0.015625 L 0.578125 -3.390625 L 1.109375 -3.390625 L 1.109375 -2.859375 C 1.210938 -3.023438 1.34375 -3.164062 1.5 -3.28125 C 1.664062 -3.40625 1.867188 -3.46875 2.109375 -3.46875 C 2.347656 -3.46875 2.535156 -3.429688 2.671875 -3.359375 C 2.816406 -3.285156 2.9375 -3.1875 3.03125 -3.0625 C 3.082031 -2.988281 3.128906 -2.910156 3.171875 -2.828125 C 3.273438 -3.003906 3.410156 -3.15625 3.578125 -3.28125 C 3.742188 -3.40625 3.945312 -3.46875 4.1875 -3.46875 C 4.425781 -3.46875 4.613281 -3.429688 4.75 -3.359375 C 4.894531 -3.285156 5.015625 -3.1875 5.109375 -3.0625 C 5.296875 -2.820312 5.390625 -2.507812 5.390625 -2.125 L 5.390625 -0.015625 Z M 4.859375 -0.015625 "/></g></g></g><g fill="#ffffff" fill-opacity="1"><g transform="translate(38.692157, 7.585572)"><g><path d="M 3.875 -1.765625 L 3.875 -1.484375 L 0.90625 -1.484375 C 0.957031 -1.191406 1.097656 -0.953125 1.328125 -0.765625 C 1.566406 -0.578125 1.828125 -0.484375 2.109375 -0.484375 C 2.304688 -0.484375 2.492188 -0.53125 2.671875 -0.625 C 2.847656 -0.707031 2.992188 -0.828125 3.109375 -0.984375 L 3.71875 -0.984375 C 3.570312 -0.660156 3.359375 -0.410156 3.078125 -0.234375 C 2.785156 -0.046875 2.488281 0.046875 2.1875 0.046875 C 1.882812 0.046875 1.628906 0.00390625 1.421875 -0.078125 C 1.210938 -0.171875 1.023438 -0.296875 0.859375 -0.453125 C 0.515625 -0.796875 0.34375 -1.210938 0.34375 -1.703125 C 0.34375 -2.191406 0.515625 -2.609375 0.859375 -2.953125 C 1.203125 -3.296875 1.617188 -3.46875 2.109375 -3.46875 C 2.578125 -3.46875 2.988281 -3.300781 3.34375 -2.96875 C 3.695312 -2.632812 3.875 -2.234375 3.875 -1.765625 Z M 3.3125 -1.9375 C 3.25 -2.226562 3.101562 -2.46875 2.875 -2.65625 C 2.65625 -2.84375 2.398438 -2.9375 2.109375 -2.9375 C 1.671875 -2.9375 1.328125 -2.738281 1.078125 -2.34375 C 0.992188 -2.21875 0.9375 -2.082031 0.90625 -1.9375 Z M 3.3125 -1.9375 "/></g></g></g><g fill="#ffffff" fill-opacity="1"><g transform="translate(44.927967, 7.585572)"><g><path d="M 2.3125 -2.671875 C 2.1875 -2.785156 2.050781 -2.84375 1.90625 -2.84375 C 1.769531 -2.84375 1.65625 -2.804688 1.5625 -2.734375 C 1.457031 -2.648438 1.367188 -2.550781 1.296875 -2.4375 C 1.171875 -2.21875 1.109375 -1.96875 1.109375 -1.6875 L 1.109375 0 L 0.578125 0 L 0.578125 -3.375 L 1.109375 -3.375 L 1.109375 -2.671875 L 1.140625 -2.8125 C 1.316406 -3.226562 1.59375 -3.4375 1.96875 -3.4375 C 2.082031 -3.4375 2.195312 -3.414062 2.3125 -3.375 Z M 2.3125 -2.671875 "/></g></g></g><g fill="#ffffff" fill-opacity="1"><g transform="translate(49.366756, 7.585572)"><g/></g></g><g fill="#ffffff" fill-opacity="1"><g transform="translate(53.49068, 7.585572)"><g><path d="M 1.109375 0 L 0.578125 0 L 0.578125 -5.21875 L 1.109375 -5.21875 Z M 1.109375 0 "/></g></g></g><g fill="#ffffff" fill-opacity="1"><g transform="translate(57.230623, 7.585572)"><g><path d="M 2.90625 0 L 2.90625 -2.109375 C 2.90625 -2.328125 2.859375 -2.515625 2.765625 -2.671875 C 2.660156 -2.828125 2.492188 -2.90625 2.265625 -2.90625 C 2.035156 -2.90625 1.847656 -2.863281 1.703125 -2.78125 C 1.554688 -2.6875 1.441406 -2.570312 1.359375 -2.4375 C 1.191406 -2.1875 1.109375 -1.84375 1.109375 -1.40625 L 1.109375 0 L 0.578125 0 L 0.578125 -3.375 L 1.109375 -3.375 L 1.109375 -2.796875 C 1.222656 -2.984375 1.367188 -3.140625 1.546875 -3.265625 C 1.722656 -3.378906 1.929688 -3.4375 2.171875 -3.4375 C 2.421875 -3.4375 2.617188 -3.40625 2.765625 -3.34375 C 2.910156 -3.269531 3.035156 -3.175781 3.140625 -3.0625 C 3.335938 -2.820312 3.4375 -2.503906 3.4375 -2.109375 L 3.4375 0 Z M 2.90625 0 "/></g></g></g><g fill="#ffffff" fill-opacity="1"><g transform="translate(63.189975, 7.585572)"><g><path d="M 1.0625 -0.484375 C 1.195312 -0.390625 1.375 -0.34375 1.59375 -0.34375 C 2.082031 -0.34375 2.328125 -0.523438 2.328125 -0.890625 C 2.328125 -1.109375 2.148438 -1.273438 1.796875 -1.390625 C 1.648438 -1.441406 1.488281 -1.488281 1.3125 -1.53125 C 1.144531 -1.570312 0.988281 -1.625 0.84375 -1.6875 C 0.664062 -1.769531 0.53125 -1.875 0.4375 -2 C 0.351562 -2.113281 0.3125 -2.257812 0.3125 -2.4375 C 0.3125 -2.769531 0.429688 -3.019531 0.671875 -3.1875 C 0.898438 -3.363281 1.179688 -3.453125 1.515625 -3.453125 C 1.835938 -3.453125 2.109375 -3.382812 2.328125 -3.25 C 2.535156 -3.113281 2.679688 -2.878906 2.765625 -2.546875 L 2.1875 -2.546875 C 2.125 -2.734375 2.035156 -2.859375 1.921875 -2.921875 C 1.804688 -2.972656 1.664062 -3 1.5 -3 C 1.332031 -3 1.1875 -2.96875 1.0625 -2.90625 C 0.9375 -2.820312 0.875 -2.707031 0.875 -2.5625 C 0.875 -2.40625 0.925781 -2.289062 1.03125 -2.21875 C 1.132812 -2.15625 1.257812 -2.097656 1.40625 -2.046875 C 1.550781 -2.003906 1.710938 -1.960938 1.890625 -1.921875 C 2.054688 -1.878906 2.21875 -1.820312 2.375 -1.75 C 2.71875 -1.59375 2.890625 -1.332031 2.890625 -0.96875 C 2.890625 -0.601562 2.757812 -0.332031 2.5 -0.15625 C 2.363281 -0.0703125 2.21875 -0.0078125 2.0625 0.03125 C 1.90625 0.0703125 1.738281 0.09375 1.5625 0.09375 C 0.78125 0.09375 0.328125 -0.25 0.203125 -0.9375 L 0.78125 -0.9375 C 0.832031 -0.71875 0.925781 -0.566406 1.0625 -0.484375 Z M 1.0625 -0.484375 "/></g></g></g><g fill="#ffffff" fill-opacity="1"><g transform="translate(68.327609, 7.585572)"><g><path d="M 1.125 -4.546875 C 1.1875 -4.472656 1.21875 -4.390625 1.21875 -4.296875 C 1.21875 -4.203125 1.1875 -4.125 1.125 -4.0625 C 1.050781 -3.988281 0.96875 -3.953125 0.875 -3.953125 C 0.78125 -3.953125 0.703125 -3.988281 0.640625 -4.0625 C 0.566406 -4.125 0.53125 -4.203125 0.53125 -4.296875 C 0.53125 -4.390625 0.566406 -4.472656 0.640625 -4.546875 C 0.703125 -4.609375 0.78125 -4.640625 0.875 -4.640625 C 0.96875 -4.640625 1.050781 -4.609375 1.125 -4.546875 Z M 1.15625 0 L 0.609375 0 L 0.609375 -3.375 L 1.15625 -3.375 Z M 1.15625 0 "/></g></g></g><g clip-path="url(#93648acdc2)"><g fill="#ffffff" fill-opacity="1"><g transform="translate(72.136669, 7.585572)"><g><path d="M 3.3125 -1.6875 C 3.3125 -2.007812 3.195312 -2.296875 2.96875 -2.546875 C 2.738281 -2.796875 2.457031 -2.921875 2.125 -2.921875 C 1.789062 -2.921875 1.507812 -2.796875 1.28125 -2.546875 C 1.039062 -2.304688 0.921875 -2.019531 0.921875 -1.6875 C 0.921875 -1.351562 1.039062 -1.066406 1.28125 -0.828125 C 1.507812 -0.578125 1.789062 -0.453125 2.125 -0.453125 C 2.457031 -0.453125 2.738281 -0.578125 2.96875 -0.828125 C 3.195312 -1.078125 3.3125 -1.363281 3.3125 -1.6875 Z M 0.90625 0.453125 C 0.957031 0.671875 1.070312 0.859375 1.25 1.015625 C 1.476562 1.253906 1.757812 1.375 2.09375 1.375 C 2.425781 1.375 2.710938 1.253906 2.953125 1.015625 C 3.191406 0.785156 3.3125 0.503906 3.3125 0.171875 L 3.3125 -0.5625 C 3.28125 -0.53125 3.25 -0.492188 3.21875 -0.453125 C 2.894531 -0.0976562 2.503906 0.078125 2.046875 0.078125 C 1.566406 0.078125 1.171875 -0.0976562 0.859375 -0.453125 C 0.546875 -0.804688 0.390625 -1.21875 0.390625 -1.6875 C 0.390625 -2.15625 0.546875 -2.566406 0.859375 -2.921875 C 1.171875 -3.273438 1.566406 -3.453125 2.046875 -3.453125 C 2.492188 -3.453125 2.882812 -3.273438 3.21875 -2.921875 C 3.25 -2.878906 3.28125 -2.84375 3.3125 -2.8125 L 3.3125 -3.375 L 3.84375 -3.375 L 3.84375 0.171875 C 3.84375 0.648438 3.671875 1.0625 3.328125 1.40625 C 2.984375 1.75 2.570312 1.921875 2.09375 1.921875 C 1.613281 1.921875 1.203125 1.75 0.859375 1.40625 C 0.585938 1.132812 0.425781 0.816406 0.375 0.453125 Z M 0.90625 0.453125 "/></g></g></g></g><g fill="#ffffff" fill-opacity="1"><g transform="translate(78.610551, 7.585572)"><g><path d="M 1.109375 0 L 0.578125 0 L 0.578125 -5.75 L 1.109375 -5.75 L 1.109375 -2.796875 C 1.222656 -2.984375 1.367188 -3.140625 1.546875 -3.265625 C 1.722656 -3.378906 1.929688 -3.4375 2.171875 -3.4375 C 2.421875 -3.4375 2.617188 -3.40625 2.765625 -3.34375 C 2.910156 -3.269531 3.035156 -3.175781 3.140625 -3.0625 C 3.335938 -2.820312 3.4375 -2.503906 3.4375 -2.109375 L 3.4375 0 L 2.90625 0 L 2.90625 -2.109375 C 2.90625 -2.328125 2.859375 -2.515625 2.765625 -2.671875 C 2.660156 -2.828125 2.492188 -2.90625 2.265625 -2.90625 C 2.035156 -2.90625 1.847656 -2.867188 1.703125 -2.796875 C 1.554688 -2.722656 1.441406 -2.617188 1.359375 -2.484375 C 1.191406 -2.242188 1.109375 -1.882812 1.109375 -1.40625 Z M 1.109375 0 "/></g></g></g><g fill="#ffffff" fill-opacity="1"><g transform="translate(84.569903, 7.585572)"><g><path d="M 0.15625 -2.875 L 0.15625 -3.375 L 1 -3.375 L 1 -4.6875 L 1.53125 -4.6875 L 1.53125 -3.375 L 2.375 -3.375 L 2.375 -2.875 L 1.53125 -2.875 L 1.53125 0 L 1 0 L 1 -2.875 Z M 0.15625 -2.875 "/></g></g></g><g fill="#ffffff" fill-opacity="1"><g transform="translate(89.146925, 7.585572)"><g/></g></g><g fill="#ffffff" fill-opacity="1"><g transform="translate(93.270849, 7.585572)"><g><path d="M 5.171875 -2.625 C 5.171875 -3.207031 4.960938 -3.710938 4.546875 -4.140625 C 4.117188 -4.554688 3.609375 -4.765625 3.015625 -4.765625 C 2.429688 -4.765625 1.929688 -4.554688 1.515625 -4.140625 C 1.085938 -3.710938 0.875 -3.207031 0.875 -2.625 C 0.875 -2.03125 1.085938 -1.523438 1.515625 -1.109375 C 1.929688 -0.679688 2.429688 -0.46875 3.015625 -0.46875 C 3.609375 -0.46875 4.117188 -0.679688 4.546875 -1.109375 C 4.960938 -1.523438 5.171875 -2.03125 5.171875 -2.625 Z M 5.703125 -2.625 C 5.703125 -2.257812 5.632812 -1.910156 5.5 -1.578125 C 5.351562 -1.253906 5.160156 -0.972656 4.921875 -0.734375 C 4.679688 -0.484375 4.394531 -0.289062 4.0625 -0.15625 C 3.738281 -0.0078125 3.390625 0.0625 3.015625 0.0625 C 2.648438 0.0625 2.304688 -0.0078125 1.984375 -0.15625 C 1.660156 -0.289062 1.378906 -0.484375 1.140625 -0.734375 C 0.890625 -0.972656 0.695312 -1.253906 0.5625 -1.578125 C 0.414062 -1.910156 0.34375 -2.257812 0.34375 -2.625 C 0.34375 -2.988281 0.414062 -3.335938 0.5625 -3.671875 C 0.695312 -3.992188 0.890625 -4.273438 1.140625 -4.515625 C 1.378906 -4.753906 1.660156 -4.945312 1.984375 -5.09375 C 2.304688 -5.226562 2.648438 -5.296875 3.015625 -5.296875 C 3.390625 -5.296875 3.738281 -5.226562 4.0625 -5.09375 C 4.394531 -4.945312 4.679688 -4.753906 4.921875 -4.515625 C 5.160156 -4.273438 5.351562 -3.992188 5.5 -3.671875 C 5.632812 -3.335938 5.703125 -2.988281 5.703125 -2.625 Z M 5.703125 -2.625 "/></g></g></g><g fill="#ffffff" fill-opacity="1"><g transform="translate(101.380483, 7.585572)"><g><path d="M 2.03125 -2.46875 C 0.957031 -2.707031 0.421875 -3.160156 0.421875 -3.828125 C 0.421875 -4.316406 0.59375 -4.6875 0.9375 -4.9375 C 1.28125 -5.175781 1.679688 -5.296875 2.140625 -5.296875 C 3.160156 -5.296875 3.765625 -4.914062 3.953125 -4.15625 L 3.375 -4.15625 C 3.269531 -4.601562 2.859375 -4.828125 2.140625 -4.828125 C 1.640625 -4.828125 1.289062 -4.679688 1.09375 -4.390625 C 1.019531 -4.273438 0.984375 -4.132812 0.984375 -3.96875 C 0.984375 -3.644531 1.15625 -3.394531 1.5 -3.21875 C 1.664062 -3.132812 2.015625 -3.023438 2.546875 -2.890625 C 3.078125 -2.742188 3.460938 -2.585938 3.703125 -2.421875 C 4.035156 -2.191406 4.203125 -1.863281 4.203125 -1.4375 C 4.203125 -0.90625 3.992188 -0.503906 3.578125 -0.234375 C 3.234375 -0.015625 2.804688 0.09375 2.296875 0.09375 C 1.140625 0.09375 0.46875 -0.34375 0.28125 -1.21875 L 0.921875 -1.21875 C 1.015625 -0.664062 1.472656 -0.390625 2.296875 -0.390625 C 2.878906 -0.390625 3.285156 -0.550781 3.515625 -0.875 C 3.609375 -1 3.65625 -1.171875 3.65625 -1.390625 C 3.65625 -1.609375 3.570312 -1.785156 3.40625 -1.921875 C 3.15625 -2.117188 2.695312 -2.300781 2.03125 -2.46875 Z M 2.03125 -2.46875 "/></g></g></g></g></g></svg>